<svg width="14" height="15" viewBox="0 0 14 15" fill="none" xmlns="http://www.w3.org/2000/svg">
<path d="M7 0.5C3.13359 0.5 0 3.63359 0 7.5C0 11.3664 3.13359 14.5 7 14.5C10.8664 14.5 14 11.3664 14 7.5C14 3.63359 10.8664 0.5 7 0.5ZM7 13.1875C3.86367 13.1875 1.3125 10.6361 1.3125 7.5C1.3125 4.36395 3.86367 1.8125 7 1.8125C10.1363 1.8125 12.6875 4.36395 12.6875 7.5C12.6875 10.6361 10.1363 13.1875 7 13.1875ZM8.09375 9.6875H7.65625V7.28125C7.65625 6.92031 7.36367 6.625 7 6.625H6.125C5.76406 6.625 5.46875 6.92031 5.46875 7.28125C5.46875 7.64219 5.76406 7.9375 6.125 7.9375H6.34375V9.6875H5.90625C5.54531 9.6875 5.25 9.98281 5.25 10.3438C5.25 10.7047 5.54531 11 5.90625 11H8.09375C8.45605 11 8.75 10.7061 8.75 10.3438C8.75 9.98145 8.45742 9.6875 8.09375 9.6875ZM7 5.75C7.48316 5.75 7.875 5.35816 7.875 4.875C7.875 4.39184 7.48316 4 7 4C6.51684 4 6.125 4.39102 6.125 4.875C6.125 5.35898 6.51602 5.75 7 5.75Z" fill="#4472C4"/>
</svg>
