<svg width="36" height="36" viewBox="0 0 36 36" fill="none" xmlns="http://www.w3.org/2000/svg">
<path d="M6.79375 12.6289H9.75V15.5852C9.75 15.6625 9.82734 15.7227 9.92188 15.7227H11.9844C12.0789 15.7227 12.1562 15.6625 12.1562 15.5809V12.6289H15.1125C15.1898 12.6289 15.25 12.5516 15.25 12.457V10.3945C15.25 10.3 15.1898 10.2227 15.1082 10.2227H12.1562V7.26641C12.1562 7.18906 12.0789 7.12891 11.9844 7.12891H9.92188C9.82734 7.12891 9.75 7.18906 9.75 7.26641V10.2227H6.79375C6.71641 10.2227 6.65625 10.3 6.65625 10.3945V12.457C6.65625 12.5516 6.71641 12.6289 6.79375 12.6289ZM20.8875 12.6289H29.2062C29.2836 12.6289 29.3438 12.5516 29.3438 12.457V10.3945C29.3438 10.3 29.2836 10.2227 29.202 10.2227H20.8875C20.8102 10.2227 20.75 10.3 20.75 10.3945V12.457C20.75 12.5516 20.8102 12.6289 20.8875 12.6289ZM20.8875 24.0156H29.2062C29.2836 24.0156 29.3438 23.9383 29.3438 23.8438V21.7812C29.3438 21.6867 29.2836 21.6094 29.202 21.6094H20.8875C20.8102 21.6094 20.75 21.6867 20.75 21.7812V23.8438C20.75 23.9383 20.8102 24.0156 20.8875 24.0156ZM20.8875 28.4844H29.2062C29.2836 28.4844 29.3438 28.407 29.3438 28.3125V26.25C29.3438 26.1555 29.2836 26.0781 29.202 26.0781H20.8875C20.8102 26.0781 20.75 26.1555 20.75 26.25V28.3125C20.75 28.407 20.8102 28.4844 20.8875 28.4844ZM12.4785 25.0039L15.1082 21.7855C15.293 21.5621 15.1383 21.2227 14.8547 21.2227H12.6719C12.573 21.2227 12.4785 21.2656 12.4184 21.3473L10.9574 23.1348L9.49648 21.3473C9.46575 21.3094 9.42717 21.2787 9.3834 21.2571C9.33963 21.2356 9.29172 21.2239 9.24297 21.2227H7.05586C6.77226 21.2227 6.61758 21.5621 6.80234 21.7855L9.43203 25.0039L6.73789 28.3039C6.54883 28.5273 6.70352 28.8668 6.98711 28.8668H9.16992C9.26875 28.8668 9.36328 28.8238 9.42344 28.7422L10.9488 26.873L12.4742 28.7422C12.5387 28.8195 12.6332 28.8668 12.7277 28.8668H14.9105C15.1941 28.8668 15.3488 28.5273 15.1641 28.3039L12.4785 25.0039ZM33.8125 0.8125H2.1875C1.42695 0.8125 0.8125 1.42695 0.8125 2.1875V33.8125C0.8125 34.573 1.42695 35.1875 2.1875 35.1875H33.8125C34.573 35.1875 35.1875 34.573 35.1875 33.8125V2.1875C35.1875 1.42695 34.573 0.8125 33.8125 0.8125ZM32.2656 32.2656H3.73438V3.73438H32.2656V32.2656Z" fill="white"/>
</svg>
