<svg width="20" height="20" viewBox="0 0 20 20" fill="none" xmlns="http://www.w3.org/2000/svg">
<path d="M2.70629 1.98018L17.7563 9.17804C17.9084 9.25068 18.0369 9.36489 18.1268 9.50748C18.2167 9.65006 18.2644 9.81518 18.2644 9.98375C18.2644 10.1523 18.2167 10.3175 18.1268 10.46C18.0369 10.6026 17.9084 10.7168 17.7563 10.7895L2.70629 17.9873C2.55201 18.0612 2.37974 18.0892 2.20999 18.0681C2.04024 18.0469 1.88015 17.9774 1.74877 17.8678C1.61739 17.7582 1.52024 17.6132 1.4689 17.4501C1.41755 17.2869 1.41417 17.1124 1.45915 16.9473L3.35915 9.98375L1.45915 3.02018C1.41417 2.85513 1.41755 2.68064 1.4689 2.51746C1.52024 2.35427 1.61739 2.20928 1.74877 2.09972C1.88015 1.99016 2.04024 1.92065 2.20999 1.89946C2.37974 1.87826 2.55201 1.90629 2.70629 1.98018ZM2.59558 3.11518L4.32629 9.46304L12.142 9.46375C12.2716 9.46378 12.3967 9.51077 12.4943 9.596C12.5919 9.68123 12.6553 9.79894 12.6727 9.92733L12.6777 9.99947C12.6777 10.1289 12.6308 10.254 12.5457 10.3516C12.4607 10.4491 12.3431 10.5126 12.2149 10.5302L12.142 10.5352H4.31772L2.59629 16.8523L16.9577 9.98375L2.59558 3.11518Z" fill="white"/>
</svg>
