<svg width="18" height="18" viewBox="0 0 18 18" fill="none" xmlns="http://www.w3.org/2000/svg">
<path d="M9.75 4.5C9.75 4.69891 9.67098 4.88968 9.53033 5.03033C9.38968 5.17098 9.19891 5.25 9 5.25C8.80109 5.25 8.61032 5.17098 8.46967 5.03033C8.32902 4.88968 8.25 4.69891 8.25 4.5C8.25 4.30109 8.32902 4.11032 8.46967 3.96967C8.61032 3.82902 8.80109 3.75 9 3.75C9.19891 3.75 9.38968 3.82902 9.53033 3.96967C9.67098 4.11032 9.75 4.30109 9.75 4.5ZM8.4375 7.3125V12.9375C8.4375 13.0867 8.49676 13.2298 8.60225 13.3352C8.70774 13.4407 8.85082 13.5 9 13.5C9.14918 13.5 9.29226 13.4407 9.39775 13.3352C9.50324 13.2298 9.5625 13.0867 9.5625 12.9375V7.3125C9.5625 7.16332 9.50324 7.02024 9.39775 6.91475C9.29226 6.80926 9.14918 6.75 9 6.75C8.85082 6.75 8.70774 6.80926 8.60225 6.91475C8.49676 7.02024 8.4375 7.16332 8.4375 7.3125ZM0 9C0 4.02975 4.02975 0 9 0C13.9703 0 18 4.02975 18 9C18 13.9703 13.9703 18 9 18C4.02975 18 0 13.9703 0 9ZM9 1.125C4.65075 1.125 1.125 4.65075 1.125 9C1.125 13.3492 4.65075 16.875 9 16.875C13.3492 16.875 16.875 13.3492 16.875 9C16.875 4.65075 13.3492 1.125 9 1.125Z" fill="#4472C4"/>
</svg>
