<svg width="20" height="20" viewBox="0 0 20 20" fill="none" xmlns="http://www.w3.org/2000/svg">
<g id="circle-check 2" clip-path="url(#clip0_404_1913)">
<path id="Vector" d="M9.52344 13.2734C9.09766 13.6992 8.40234 13.6992 7.97656 13.2734L5.47656 10.7734C5.05078 10.3477 5.05078 9.65234 5.47656 9.22656C5.90234 8.80078 6.59766 8.80078 7.02344 9.22656L8.75 10.9531L12.9766 6.72656C13.4023 6.30078 14.0977 6.30078 14.5234 6.72656C14.9492 7.15234 14.9492 7.84766 14.5234 8.27344L9.52344 13.2734ZM20 10C20 15.5234 15.5234 20 10 20C4.47656 20 0 15.5234 0 10C0 4.47656 4.47656 0 10 0C15.5234 0 20 4.47656 20 10ZM10 1.875C5.51172 1.875 1.875 5.51172 1.875 10C1.875 14.4883 5.51172 18.125 10 18.125C14.4883 18.125 18.125 14.4883 18.125 10C18.125 5.51172 14.4883 1.875 10 1.875Z" fill="#198754"/>
</g>
<defs>
<clipPath id="clip0_404_1913">
<rect width="20" height="20" fill="white"/>
</clipPath>
</defs>
</svg>
