<svg xmlns="http://www.w3.org/2000/svg" width="16" height="16" viewBox="0 0 16 16" fill="none">
  <path d="M10.5269 8.00065L14.3175 4.21012C14.7826 3.74497 14.7826 2.9908 14.3175 2.52527L13.4751 1.68285C13.0099 1.2177 12.2557 1.2177 11.7902 1.68285L7.99967 5.47338L4.20914 1.68285C3.74399 1.2177 2.98983 1.2177 2.5243 1.68285L1.68187 2.52527C1.21672 2.99042 1.21672 3.74459 1.68187 4.21012L5.4724 8.00065L1.68187 11.7912C1.21672 12.2563 1.21672 13.0105 1.68187 13.476L2.5243 14.3185C2.98945 14.7836 3.74399 14.7836 4.20914 14.3185L7.99967 10.5279L11.7902 14.3185C12.2554 14.7836 13.0099 14.7836 13.4751 14.3185L14.3175 13.476C14.7826 13.0109 14.7826 12.2567 14.3175 11.7912L10.5269 8.00065Z" fill="#FF0000"/>
</svg>