<svg width="61" height="60" viewBox="0 0 61 60" fill="none" xmlns="http://www.w3.org/2000/svg">
<g id="ion:document-sharp">
<path id="Vector" d="M28.458 25.3125V3.75H11.1143C10.7413 3.75 10.3836 3.89816 10.1199 4.16188C9.85617 4.4256 9.70801 4.78329 9.70801 5.15625V54.8438C9.70801 55.2167 9.85617 55.5744 10.1199 55.8381C10.3836 56.1018 10.7413 56.25 11.1143 56.25H49.5518C49.9247 56.25 50.2824 56.1018 50.5461 55.8381C50.8098 55.5744 50.958 55.2167 50.958 54.8438V26.25H29.3955C29.1469 26.25 28.9084 26.1512 28.7326 25.9754C28.5568 25.7996 28.458 25.5611 28.458 25.3125Z" fill="#4472C4"/>
<path id="Vector_2" d="M32.208 4.88495V22.0307C32.208 22.155 32.2574 22.2742 32.3453 22.3621C32.4332 22.45 32.5524 22.4994 32.6768 22.4994H49.8225C49.8688 22.4994 49.9141 22.4858 49.9526 22.4601C49.9911 22.4344 50.0212 22.3979 50.039 22.3551C50.0568 22.3124 50.0616 22.2653 50.0526 22.2199C50.0437 22.1744 50.0215 22.1326 49.9889 22.0998L32.6076 4.71855C32.5748 4.6859 32.533 4.66371 32.4875 4.65478C32.4421 4.64586 32.395 4.6506 32.3523 4.6684C32.3095 4.6862 32.273 4.71627 32.2473 4.75481C32.2217 4.79336 32.208 4.83864 32.208 4.88495Z" fill="#4472C4"/>
</g>
</svg>
