<svg width="20" height="20" viewBox="0 0 20 20" fill="none" xmlns="http://www.w3.org/2000/svg">
<path id="Vector" d="M2.95455 1.36364C2.53261 1.36364 2.12796 1.53125 1.8296 1.8296C1.53125 2.12796 1.36364 2.53261 1.36364 2.95455V17.0455C1.36365 17.428 1.5015 17.7977 1.75195 18.0869C2.00239 18.3761 2.34865 18.5654 2.72727 18.62V12.0455C2.72727 11.503 2.94278 10.9827 3.32637 10.5991C3.70997 10.2155 4.23024 10 4.77273 10H15.2273C15.7698 10 16.29 10.2155 16.6736 10.5991C17.0572 10.9827 17.2727 11.503 17.2727 12.0455V18.62C17.6514 18.5654 17.9976 18.3761 18.2481 18.0869C18.4985 17.7977 18.6364 17.428 18.6364 17.0455V5.26C18.6364 4.83727 18.4691 4.43273 18.17 4.13455L15.8655 1.83C15.7177 1.68214 15.5422 1.56484 15.3491 1.48482C15.156 1.4048 14.949 1.36362 14.74 1.36364H14.5455V5.22727C14.5455 5.49589 14.4925 5.76187 14.3898 6.01003C14.287 6.2582 14.1363 6.48369 13.9464 6.67363C13.7564 6.86357 13.5309 7.01423 13.2828 7.11703C13.0346 7.21982 12.7686 7.27273 12.5 7.27273H6.59091C6.04842 7.27273 5.52815 7.05722 5.14455 6.67363C4.76096 6.29003 4.54545 5.76976 4.54545 5.22727V1.36364H2.95455ZM5.90909 1.36364V5.22727C5.90909 5.60364 6.21455 5.90909 6.59091 5.90909H12.5C12.6808 5.90909 12.8543 5.83726 12.9821 5.70939C13.11 5.58153 13.1818 5.4081 13.1818 5.22727V1.36364H5.90909ZM15.9091 18.6364V12.0455C15.9091 11.8646 15.8373 11.6912 15.7094 11.5633C15.5815 11.4355 15.4081 11.3636 15.2273 11.3636H4.77273C4.5919 11.3636 4.41847 11.4355 4.29061 11.5633C4.16274 11.6912 4.09091 11.8646 4.09091 12.0455V18.6364H15.9091ZM0 2.95455C0 2.17095 0.311281 1.41945 0.865366 0.865366C1.41945 0.311281 2.17095 0 2.95455 0H14.7409C15.5245 4.67926e-05 16.276 0.311359 16.83 0.865454L19.1345 3.17C19.6891 3.72455 20 4.47636 20 5.26V17.0455C20 17.8291 19.6887 18.5805 19.1346 19.1346C18.5805 19.6887 17.8291 20 17.0455 20H2.95455C2.17095 20 1.41945 19.6887 0.865366 19.1346C0.311281 18.5805 0 17.8291 0 17.0455V2.95455Z" fill="white"/>
</svg>
