<svg width="26" height="21" viewBox="0 0 26 21" fill="none" xmlns="http://www.w3.org/2000/svg">
<path opacity="0.5" d="M12.6563 5.65982L4.33401 12.4812V19.8435C4.33401 20.0341 4.4101 20.2169 4.54554 20.3517C4.68099 20.4865 4.86469 20.5622 5.05623 20.5622L10.1145 20.5492C10.3054 20.5482 10.4882 20.4721 10.6229 20.3374C10.7575 20.2027 10.8331 20.0204 10.8331 19.8304V15.531C10.8331 15.3403 10.9092 15.1575 11.0446 15.0227C11.1801 14.8879 11.3638 14.8122 11.5553 14.8122H14.4442C14.6358 14.8122 14.8195 14.8879 14.9549 15.0227C15.0904 15.1575 15.1664 15.3403 15.1664 15.531V19.8273C15.1661 19.9219 15.1846 20.0156 15.2208 20.103C15.2569 20.1905 15.3101 20.27 15.3772 20.337C15.4443 20.404 15.524 20.4571 15.6118 20.4934C15.6995 20.5296 15.7936 20.5483 15.8887 20.5483L20.9451 20.5622C21.1367 20.5622 21.3204 20.4865 21.4558 20.3517C21.5913 20.2169 21.6673 20.0341 21.6673 19.8435V12.4763L13.3469 5.65982C13.2491 5.58136 13.1272 5.53857 13.0016 5.53857C12.8759 5.53857 12.7541 5.58136 12.6563 5.65982ZM25.8021 10.2962L22.0285 7.20064V0.978516C22.0285 0.835547 21.9714 0.698435 21.8698 0.597341C21.7682 0.496247 21.6304 0.439453 21.4868 0.439453H18.959C18.8154 0.439453 18.6776 0.496247 18.576 0.597341C18.4744 0.698435 18.4173 0.835547 18.4173 0.978516V4.24029L14.3761 0.931348C13.9882 0.613741 13.5016 0.440088 12.9993 0.440088C12.4971 0.440088 12.0104 0.613741 11.6226 0.931348L0.196579 10.2962C0.14173 10.3413 0.0963507 10.3968 0.0630346 10.4593C0.0297185 10.5219 0.0091184 10.5904 0.00241139 10.6609C-0.00429562 10.7314 0.0030219 10.8025 0.0239458 10.8702C0.0448698 10.9379 0.07899 11.0008 0.124357 11.0554L1.2754 12.448C1.32064 12.5027 1.37629 12.548 1.43916 12.5814C1.50203 12.6147 1.57089 12.6353 1.64179 12.6421C1.71269 12.6489 1.78424 12.6418 1.85235 12.621C1.92045 12.6003 1.98378 12.5663 2.0387 12.5212L12.6563 3.81803C12.7541 3.73956 12.8759 3.69677 13.0016 3.69677C13.1272 3.69677 13.2491 3.73956 13.3469 3.81803L23.9649 12.5212C24.0197 12.5663 24.083 12.6003 24.151 12.6211C24.219 12.6419 24.2905 12.6492 24.3613 12.6426C24.4321 12.6359 24.501 12.6154 24.5639 12.5822C24.6267 12.5491 24.6824 12.5039 24.7278 12.4493L25.8788 11.0567C25.9241 11.0019 25.9581 10.9386 25.9788 10.8706C25.9995 10.8027 26.0064 10.7313 25.9993 10.6606C25.9922 10.5899 25.9711 10.5214 25.9372 10.4588C25.9034 10.3963 25.8574 10.341 25.8021 10.2962Z" fill="white"/>
</svg>
