<svg xmlns="http://www.w3.org/2000/svg" width="16" height="16" viewBox="0 0 16 16" fill="none">
  <path d="M14.2991 5.0327L13.0985 6.23327C12.9761 6.35567 12.7782 6.35567 12.6558 6.23327L9.76502 3.34253C9.64262 3.22013 9.64262 3.0222 9.76502 2.8998L10.9656 1.69923C11.4526 1.21223 12.2443 1.21223 12.7339 1.69923L14.2991 3.2644C14.7887 3.7514 14.7887 4.5431 14.2991 5.0327ZM8.73373 3.93109L1.89491 10.7699L1.34281 13.9341C1.26728 14.3612 1.63969 14.731 2.06679 14.6581L5.23098 14.1034L12.0698 7.26456C12.1922 7.14216 12.1922 6.94423 12.0698 6.82183L9.17906 3.93109C9.05405 3.80869 8.85613 3.80869 8.73373 3.93109ZM4.56429 10.1839C4.42106 10.0407 4.42106 9.81153 4.56429 9.6683L8.57487 5.65772C8.7181 5.51449 8.94728 5.51449 9.09051 5.65772C9.23375 5.80096 9.23375 6.03013 9.09051 6.17337L5.07994 10.1839C4.9367 10.3272 4.70752 10.3272 4.56429 10.1839ZM3.62415 12.3741H4.8742V13.3195L3.19444 13.6138L2.38452 12.8038L2.6788 11.1241H3.62415V12.3741Z" fill="#4472C4"/>
</svg>