<svg width="20" height="22" viewBox="0 0 20 22" fill="none" xmlns="http://www.w3.org/2000/svg">
<path d="M19.3125 11C19.3125 11.7601 18.6968 12.3754 17.9375 12.3754H11.75V18.5629C11.75 19.323 11.1343 19.9375 10.375 19.9375C9.61574 19.9375 9 19.323 9 18.5629V12.3754H2.8125C2.05324 12.3754 1.4375 11.7601 1.4375 11C1.4375 10.2399 2.05324 9.62543 2.8125 9.62543H9V3.43793C9 2.67781 9.61574 2.0625 10.375 2.0625C11.1343 2.0625 11.75 2.67781 11.75 3.43793V9.62543H17.9375C18.698 9.625 19.3125 10.2395 19.3125 11Z" fill="#198754"/>
</svg>
