<svg width="22" height="22" viewBox="0 0 22 22" fill="none" xmlns="http://www.w3.org/2000/svg">
<path d="M13.6411 9.78172C13.6411 9.94334 13.5769 10.0983 13.4626 10.2126C13.3483 10.3269 13.1933 10.3911 13.0317 10.3911H10.3911V13.0317C10.3911 13.1933 10.3269 13.3483 10.2126 13.4626C10.0983 13.5769 9.94334 13.6411 9.78172 13.6411C9.62011 13.6411 9.46511 13.5769 9.35083 13.4626C9.23655 13.3483 9.17235 13.1933 9.17235 13.0317V10.3911H6.53172C6.37011 10.3911 6.21511 10.3269 6.10083 10.2126C5.98655 10.0983 5.92235 9.94334 5.92235 9.78172C5.92235 9.62011 5.98655 9.46511 6.10083 9.35083C6.21511 9.23655 6.37011 9.17235 6.53172 9.17235H9.17235V6.53172C9.17235 6.37011 9.23655 6.21511 9.35083 6.10083C9.46511 5.98655 9.62011 5.92235 9.78172 5.92235C9.94334 5.92235 10.0983 5.98655 10.2126 6.10083C10.3269 6.21511 10.3911 6.37011 10.3911 6.53172V9.17235H13.0317C13.1933 9.17235 13.3483 9.23655 13.4626 9.35083C13.5769 9.46511 13.6411 9.62011 13.6411 9.78172ZM21.177 21.177C21.122 21.2348 21.0558 21.2808 20.9825 21.3122C20.9092 21.3436 20.8302 21.3598 20.7505 21.3598C20.6707 21.3598 20.5918 21.3436 20.5184 21.3122C20.4451 21.2808 20.3789 21.2348 20.3239 21.177L15.7942 16.6575C14.0054 18.2224 11.6783 19.0308 9.30453 18.912C6.93075 18.7932 4.69606 17.7564 3.0724 16.0207C1.44874 14.285 0.563216 11.9862 0.602837 9.60979C0.642458 7.23336 1.60412 4.96536 3.28474 3.28474C4.96536 1.60412 7.23336 0.642458 9.60979 0.602837C11.9862 0.563216 14.285 1.44874 16.0207 3.0724C17.7564 4.69606 18.7932 6.93075 18.912 9.30453C19.0308 11.6783 18.2224 14.0054 16.6575 15.7942L21.177 20.3239C21.2348 20.3789 21.2808 20.4451 21.3122 20.5184C21.3436 20.5918 21.3598 20.6707 21.3598 20.7505C21.3598 20.8302 21.3436 20.9092 21.3122 20.9825C21.2808 21.0558 21.2348 21.122 21.177 21.177ZM17.7036 9.78172C17.7036 8.21493 17.239 6.68331 16.3685 5.38057C15.4981 4.07782 14.2608 3.06245 12.8133 2.46287C11.3658 1.86328 9.77294 1.7064 8.23624 2.01207C6.69955 2.31773 5.28801 3.07222 4.18011 4.18011C3.07222 5.28801 2.31773 6.69955 2.01207 8.23624C1.7064 9.77294 1.86328 11.3658 2.46287 12.8133C3.06245 14.2608 4.07782 15.4981 5.38057 16.3685C6.68331 17.239 8.21493 17.7036 9.78172 17.7036C11.8819 17.7009 13.8953 16.8654 15.3804 15.3804C16.8654 13.8953 17.7009 11.8819 17.7036 9.78172Z" fill="white"/>
</svg>
