<svg width="38" height="38" viewBox="0 0 38 38" fill="none" xmlns="http://www.w3.org/2000/svg">
<path d="M0.908748 21.9887C0.579896 20.0101 0.579896 17.9907 0.908748 16.0121C2.92908 16.0597 4.74408 15.0917 5.44991 13.3886C6.15575 11.6836 5.55625 9.71455 4.09325 8.32305C5.26 6.69008 6.68845 5.26102 8.32091 4.09355C9.71425 5.55655 11.6832 6.15605 13.3882 5.45022C15.0932 4.74439 16.0594 2.92755 16.0099 0.909053C17.9898 0.579795 20.0104 0.579795 21.9902 0.909053C21.9407 2.92939 22.9087 4.74439 24.6119 5.45022C26.3169 6.15605 28.2859 5.55655 29.6774 4.09355C31.3104 5.26031 32.7395 6.68875 33.9069 8.32122C32.4439 9.71455 31.8444 11.6836 32.5502 13.3886C33.2561 15.0936 35.0729 16.0597 37.0914 16.0102C37.4207 17.9901 37.4207 20.0107 37.0914 21.9906C35.0711 21.9411 33.2561 22.9091 32.5502 24.6122C31.8444 26.3172 32.4439 28.2862 33.9069 29.6777C32.7402 31.3107 31.3117 32.7398 29.6792 33.9072C28.2859 32.4442 26.3169 31.8447 24.6119 32.5506C22.9069 33.2564 21.9407 35.0732 21.9902 37.0917C20.0104 37.421 17.9898 37.421 16.0099 37.0917C16.0594 35.0714 15.0914 33.2564 13.3882 32.5506C11.6832 31.8447 9.71425 32.4442 8.32275 33.9072C6.68978 32.7405 5.26071 31.312 4.09325 29.6796C5.55625 28.2862 6.15575 26.3172 5.44991 24.6122C4.74408 22.9072 2.92725 21.9392 0.908748 21.9887ZM19.0001 24.5004C20.4588 24.5004 21.8577 23.9209 22.8892 22.8895C23.9206 21.858 24.5001 20.4591 24.5001 19.0004C24.5001 17.5417 23.9206 16.1427 22.8892 15.1113C21.8577 14.0798 20.4588 13.5004 19.0001 13.5004C17.5414 13.5004 16.1424 14.0798 15.111 15.1113C14.0795 16.1427 13.5001 17.5417 13.5001 19.0004C13.5001 20.4591 14.0795 21.858 15.111 22.8895C16.1424 23.9209 17.5414 24.5004 19.0001 24.5004Z" fill="white"/>
</svg>
