<svg width="61" height="60" viewBox="0 0 61 60" fill="none" xmlns="http://www.w3.org/2000/svg">
<g id="ri:settings-5-fill">
<path id="Vector" d="M5.99746 34.0759C5.54902 31.3777 5.54902 28.624 5.99746 25.9259C8.75246 25.9909 11.2275 24.6709 12.19 22.3484C13.1525 20.0234 12.335 17.3384 10.34 15.4409C11.931 13.2141 13.8789 11.2654 16.105 9.67338C18.005 11.6684 20.69 12.4859 23.015 11.5234C25.34 10.5609 26.6575 8.08338 26.59 5.33088C29.2898 4.88189 32.0452 4.88189 34.745 5.33088C34.6775 8.08588 35.9975 10.5609 38.32 11.5234C40.645 12.4859 43.33 11.6684 45.2275 9.67338C47.4542 11.2644 49.403 13.2123 50.995 15.4384C49 17.3384 48.1825 20.0234 49.145 22.3484C50.1075 24.6734 52.585 25.9909 55.3375 25.9234C55.7864 28.6232 55.7864 31.3786 55.3375 34.0784C52.5825 34.0109 50.1075 35.3309 49.145 37.6534C48.1825 39.9784 49 42.6634 50.995 44.5609C49.4039 46.7877 47.4561 48.7364 45.23 50.3284C43.33 48.3334 40.645 47.5159 38.32 48.4784C35.995 49.4409 34.6775 51.9184 34.745 54.6709C32.0452 55.1199 29.2898 55.1199 26.59 54.6709C26.6575 51.9159 25.3375 49.4409 23.015 48.4784C20.69 47.5159 18.005 48.3334 16.1075 50.3284C13.8807 48.7373 11.932 46.7895 10.34 44.5634C12.335 42.6634 13.1525 39.9784 12.19 37.6534C11.2275 35.3284 8.74996 34.0084 5.99746 34.0759ZM30.6675 37.5009C32.6566 37.5009 34.5642 36.7107 35.9708 35.3042C37.3773 33.8977 38.1675 31.99 38.1675 30.0009C38.1675 28.0118 37.3773 26.1041 35.9708 24.6976C34.5642 23.2911 32.6566 22.5009 30.6675 22.5009C28.6783 22.5009 26.7707 23.2911 25.3642 24.6976C23.9576 26.1041 23.1675 28.0118 23.1675 30.0009C23.1675 31.99 23.9576 33.8977 25.3642 35.3042C26.7707 36.7107 28.6783 37.5009 30.6675 37.5009Z" fill="#4472C4"/>
</g>
</svg>
