<svg width="61" height="60" viewBox="0 0 61 60" fill="none" xmlns="http://www.w3.org/2000/svg">
<g id="Frame 202">
<path id="Vector" d="M30.3326 5.45508C16.7982 5.45508 5.78711 16.4662 5.78711 30.0005V40.1697C5.78711 42.6832 7.98884 44.7278 10.6962 44.7278H13.1507C13.8017 44.7278 14.4261 44.4692 14.8864 44.0089C15.3467 43.5486 15.6053 42.9242 15.6053 42.2733V29.6495C15.6053 28.9985 15.3467 28.3742 14.8864 27.9139C14.4261 27.4536 13.8017 27.195 13.1507 27.195H10.922C12.2867 17.6959 20.4604 10.3642 30.3326 10.3642C40.2047 10.3642 48.3784 17.6959 49.7431 27.195H47.5144C46.8634 27.195 46.2391 27.4536 45.7788 27.9139C45.3184 28.3742 45.0598 28.9985 45.0598 29.6495V44.7278C45.0598 47.4352 42.8581 49.6369 40.1507 49.6369H35.2417V47.1824H25.4235V54.546H40.1507C45.5655 54.546 49.9689 50.1425 49.9689 44.7278C52.6763 44.7278 54.878 42.6832 54.878 40.1697V30.0005C54.878 16.4662 43.8669 5.45508 30.3326 5.45508Z" fill="#4472C4"/>
</g>
</svg>
